<mxfile host="app.diagrams.net" modified="2023-05-10T12:04:27.803Z" agent="Mozilla/5.0 (Macintosh; Intel Mac OS X 10_15_7) AppleWebKit/605.1.15 (KHTML, like Gecko) Version/15.3 Safari/605.1.15" version="21.2.9" etag="XbDlRj--oM3AmMbMbtXP" type="github">
  <diagram name="第 1 页" id="45B62bTCA4CZlB8HrBik">
    <mxGraphModel>
      <root>
        <mxCell id="0" />
        <mxCell id="1" parent="0" />
      </root>
    </mxGraphModel>
  </diagram>
</mxfile>
